<?xml version="1.0" encoding="UTF-8" standalone="no"?>
<!-- Creator: CorelDRAW 2018 (64 Bit Versão de avaliação) -->

<svg
   xmlns:dc="http://purl.org/dc/elements/1.1/"
   xmlns:cc="http://creativecommons.org/ns#"
   xmlns:rdf="http://www.w3.org/1999/02/22-rdf-syntax-ns#"
   xmlns:svg="http://www.w3.org/2000/svg"
   xmlns="http://www.w3.org/2000/svg"
   xmlns:sodipodi="http://sodipodi.sourceforge.net/DTD/sodipodi-0.dtd"
   xmlns:inkscape="http://www.inkscape.org/namespaces/inkscape"
   xml:space="preserve"
   width="640"
   height="808"
   version="1.1"
   style="clip-rule:evenodd;fill-rule:evenodd;image-rendering:optimizeQuality;shape-rendering:geometricPrecision;text-rendering:geometricPrecision"
   viewBox="0 0 16933.333 21378.334"
   id="svg90"
   sodipodi:docname="emailLogo.svg"
   inkscape:version="0.92.4 (f8dce91, 2019-08-02)"><metadata
   id="metadata94"><rdf:RDF><cc:Work
       rdf:about=""><dc:format>image/svg+xml</dc:format><dc:type
         rdf:resource="http://purl.org/dc/dcmitype/StillImage" /><dc:title></dc:title></cc:Work></rdf:RDF></metadata><sodipodi:namedview
   pagecolor="#ffffff"
   bordercolor="#666666"
   borderopacity="1"
   objecttolerance="10"
   gridtolerance="10"
   guidetolerance="10"
   inkscape:pageopacity="0"
   inkscape:pageshadow="2"
   inkscape:window-width="1366"
   inkscape:window-height="680"
   id="namedview92"
   showgrid="false"
   units="px"
   inkscape:zoom="0.44453563"
   inkscape:cx="396.85039"
   inkscape:cy="561.25984"
   inkscape:window-x="0"
   inkscape:window-y="27"
   inkscape:window-maximized="1"
   inkscape:current-layer="svg90" />
 <defs
   id="defs78">
  <style
   type="text/css"
   id="style76">
   <![CDATA[
    .fil0 {fill:#FEFEFE}
    .fil1 {fill:white}
   ]]>
  </style>
 </defs>
 <g
   id="Camada_x0020_1"
   transform="translate(-4463.9279,-4512.4427)">
  <metadata
   id="CorelCorpID_0Corel-Layer" />
  <path
   class="fil0"
   d="m 12959.86,7469.72 c 4681.92,0 8477.36,3795.44 8477.36,8477.36 0,4681.91 -3795.44,8477.35 -8477.36,8477.35 -4681.91,0 -8477.35,-3795.44 -8477.35,-8477.35 0,-4681.92 3795.44,-8477.36 8477.35,-8477.36 z m -5629.22,5829.53 c 596.01,242.35 2228.24,1682.03 2822.68,2165 l 2046.26,1584.18 c 848.94,660.24 815.33,769.97 2314.08,-535.93 431.63,-375.98 924.06,-684.86 1371.14,-1048.25 646.52,-525.18 2139.4,-1888.17 2821.11,-2163.57 l -5,6359.69 H 7337.23 Z m 1268.27,-38.49 c -381.83,-307.44 -1193.58,-649.23 -1246.39,-1331.21 436.5,-191.28 10896.58,-191.28 11333.08,0 -49.36,637.93 -907.33,1069.12 -1302.76,1397.18 l -2986.62,2346.26 c -442.93,346.36 -1002.04,956.97 -1465.28,1086 z m -1818.21,7020.08 12470,6.45 6.73,-9077.94 -12469.87,-6.3 z"
   id="path81"
   inkscape:connector-curvature="0"
   style="fill:#fefefe" />
  <polygon
   class="fil1"
   points="22882.2,-709.09 22202.16,-709.09 22882.2,-29.05 "
   id="polygon83"
   style="fill:#ffffff" />
  <path
   class="fil1"
   d="m 11246,10927.11 h 680.04 c -13.47,-11.69 -33.82,-48.64 -39.98,-35.61 -6.07,12.94 -31.41,-28.82 -40.07,-35.43 l -599.99,-609 z"
   id="path85"
   inkscape:connector-curvature="0"
   style="fill:#ffffff" />
  <path
   class="fil1"
   d="m 11246,-29.05 135.65,-166.62 c 318.25,-449.79 142.08,-163.76 544.39,-513.42 H 11246 Z"
   id="path87"
   inkscape:connector-curvature="0"
   style="fill:#ffffff" />
 </g>
</svg>