<?xml version="1.0" encoding="UTF-8" standalone="no"?>
<!-- Creator: CorelDRAW 2018 (64 Bit Versão de avaliação) -->

<svg
   xmlns:dc="http://purl.org/dc/elements/1.1/"
   xmlns:cc="http://creativecommons.org/ns#"
   xmlns:rdf="http://www.w3.org/1999/02/22-rdf-syntax-ns#"
   xmlns:svg="http://www.w3.org/2000/svg"
   xmlns="http://www.w3.org/2000/svg"
   xmlns:sodipodi="http://sodipodi.sourceforge.net/DTD/sodipodi-0.dtd"
   xmlns:inkscape="http://www.inkscape.org/namespaces/inkscape"
   xml:space="preserve"
   width="640"
   height="808"
   version="1.1"
   style="clip-rule:evenodd;fill-rule:evenodd;image-rendering:optimizeQuality;shape-rendering:geometricPrecision;text-rendering:geometricPrecision"
   viewBox="0 0 16933.333 21378.334"
   id="svg70"
   sodipodi:docname="facebook_1.svg"
   inkscape:version="0.92.4 (f8dce91, 2019-08-02)"><metadata
   id="metadata74"><rdf:RDF><cc:Work
       rdf:about=""><dc:format>image/svg+xml</dc:format><dc:type
         rdf:resource="http://purl.org/dc/dcmitype/StillImage" /><dc:title /></cc:Work></rdf:RDF></metadata><sodipodi:namedview
   pagecolor="#ffffff"
   bordercolor="#666666"
   borderopacity="1"
   objecttolerance="10"
   gridtolerance="10"
   guidetolerance="10"
   inkscape:pageopacity="0"
   inkscape:pageshadow="2"
   inkscape:window-width="1366"
   inkscape:window-height="680"
   id="namedview72"
   showgrid="false"
   inkscape:zoom="0.77870442"
   inkscape:cx="321.10631"
   inkscape:cy="414.06723"
   inkscape:window-x="0"
   inkscape:window-y="27"
   inkscape:window-maximized="1"
   inkscape:current-layer="svg70"
   units="px" />
 <defs
   id="defs64">
  <style
   type="text/css"
   id="style62">
   <![CDATA[
    .fil0 {fill:#FEFEFE}
   ]]>
  </style>
 <style
   id="style59"
   type="text/css">
   <![CDATA[
    .fil0 {fill:#373435}
   ]]>
  </style></defs>
 <g
   style="clip-rule:evenodd;fill-rule:evenodd;image-rendering:optimizeQuality;shape-rendering:geometricPrecision;text-rendering:geometricPrecision"
   id="g159"
   transform="matrix(1.0157144,0,0,1.0157144,-2282.3591,-3120.2173)"><g
     style="fill:#ffffff"
     transform="translate(-892.78557,4821.0421)"
     id="Camada_x0020_1-3">
  <metadata
   id="CorelCorpID_0Corel-Layer-6" />
  <path
   style="fill:#ffffff"
   inkscape:connector-curvature="0"
   id="path64"
   d="m 11504.32,166.24 c 4609.48,0 8346.2,3736.72 8346.2,8346.2 0,4609.48 -3736.72,8346.2 -8346.2,8346.2 -4609.48,0 -8346.2,-3736.72 -8346.2,-8346.2 0,-4609.48 3736.72,-8346.2 8346.2,-8346.2 z M 9770.59,6690.41 h -668.95 v 1560.91 h 891.94 v 4682.75 h 2081.24 V 8177.01 h 1189.25 c 88.15,-378.33 288.63,-1095.54 297.33,-1486.6 h -1486.58 c 0,-1552.74 -158.6,-1709.58 1486.58,-1709.58 V 3419.92 h -1691.82 c -711.1,59.38 -1290.72,283.56 -1603.44,1015.87 -502.54,1176.77 -18.06,2254.62 -495.55,2254.62 z"
   class="fil0" />
 </g></g>
</svg>