<?xml version="1.0" encoding="UTF-8" standalone="no"?>
<!-- Creator: CorelDRAW 2018 (64 Bit Versão de avaliação) -->

<svg
   xmlns:dc="http://purl.org/dc/elements/1.1/"
   xmlns:cc="http://creativecommons.org/ns#"
   xmlns:rdf="http://www.w3.org/1999/02/22-rdf-syntax-ns#"
   xmlns:svg="http://www.w3.org/2000/svg"
   xmlns="http://www.w3.org/2000/svg"
   xmlns:sodipodi="http://sodipodi.sourceforge.net/DTD/sodipodi-0.dtd"
   xmlns:inkscape="http://www.inkscape.org/namespaces/inkscape"
   xml:space="preserve"
   width="640"
   height="808"
   version="1.1"
   style="clip-rule:evenodd;fill-rule:evenodd;image-rendering:optimizeQuality;shape-rendering:geometricPrecision;text-rendering:geometricPrecision"
   viewBox="0 0 16933.333 21378.334"
   id="svg174"
   sodipodi:docname="instaLogo.svg"
   inkscape:version="0.92.4 (f8dce91, 2019-08-02)"><metadata
   id="metadata178"><rdf:RDF><cc:Work
       rdf:about=""><dc:format>image/svg+xml</dc:format><dc:type
         rdf:resource="http://purl.org/dc/dcmitype/StillImage" /><dc:title></dc:title></cc:Work></rdf:RDF></metadata><sodipodi:namedview
   pagecolor="#ffffff"
   bordercolor="#666666"
   borderopacity="1"
   objecttolerance="10"
   gridtolerance="10"
   guidetolerance="10"
   inkscape:pageopacity="0"
   inkscape:pageshadow="2"
   inkscape:window-width="661"
   inkscape:window-height="480"
   id="namedview176"
   showgrid="false"
   units="px"
   inkscape:zoom="0.4204826"
   inkscape:cx="321.03898"
   inkscape:cy="408.21866"
   inkscape:window-x="104"
   inkscape:window-y="94"
   inkscape:window-maximized="0"
   inkscape:current-layer="svg174" />
 <defs
   id="defs168">
  <style
   type="text/css"
   id="style166">
   <![CDATA[
    .fil0 {fill:#FEFEFE}
   ]]>
  </style>
 </defs>
 <g
   id="Camada_x0020_1"
   transform="translate(-4467.5848,-5490.0972)">
  <metadata
   id="CorelCorpID_0Corel-Layer" />
  <path
   class="fil0"
   d="m 12959.86,7469.72 c 4681.92,0 8477.36,3795.44 8477.36,8477.36 0,4681.91 -3795.44,8477.35 -8477.36,8477.35 -4681.91,0 -8477.35,-3795.44 -8477.35,-8477.35 0,-4681.92 3795.44,-8477.36 8477.35,-8477.36 z m -2089.11,8659.34 v -527 c 0,-892.45 952.12,-1844.57 1844.57,-1844.57 h 527 c 892.45,0 1844.57,952.12 1844.57,1844.57 v 527 c 0,892.45 -952.12,1844.57 -1844.57,1844.57 h -527 c -892.45,0 -1844.57,-952.12 -1844.57,-1844.57 z m 5445.87,-1141.87 h 966.22 c 0,1095.76 111.86,4237.25 -87.85,5094.54 -735.01,171.23 -7697.33,171.23 -8432.34,0 -199.71,-857.29 -87.85,-3998.78 -87.85,-5094.54 h 966.22 c -356.25,742.47 -19.71,2314.17 680.56,3096.44 1499.06,1674.62 3815.42,1674.62 5314.48,0 699.62,-781.56 1035.71,-2356.26 680.56,-3096.44 z M 15086.89,13054.8 c 0,-1724.28 -69.04,-1493.26 1668.91,-1493.26 237.24,0 242.19,41.96 439.19,87.85 151.04,648.36 87.85,895.35 87.85,1668.91 0,563.83 -1005.77,439.19 -1493.23,439.19 -424.89,0 -702.72,-277.82 -702.72,-702.69 z M 7357.27,11473.73 v 8783.66 c 0,580.86 648.86,1229.72 1229.72,1229.72 h 8783.66 c 580.86,0 1229.72,-648.86 1229.72,-1229.72 v -8783.66 c 0,-580.86 -648.86,-1229.72 -1229.72,-1229.72 H 8586.99 c -580.86,0 -1229.72,648.86 -1229.72,1229.72 z"
   id="path171"
   inkscape:connector-curvature="0"
   style="fill:#fefefe" />
 </g>
</svg>