<?xml version="1.0" encoding="UTF-8" standalone="no"?>
<!-- Creator: CorelDRAW 2018 (64 Bit Versão de avaliação) -->

<svg
   xmlns:dc="http://purl.org/dc/elements/1.1/"
   xmlns:cc="http://creativecommons.org/ns#"
   xmlns:rdf="http://www.w3.org/1999/02/22-rdf-syntax-ns#"
   xmlns:svg="http://www.w3.org/2000/svg"
   xmlns="http://www.w3.org/2000/svg"
   xmlns:sodipodi="http://sodipodi.sourceforge.net/DTD/sodipodi-0.dtd"
   xmlns:inkscape="http://www.inkscape.org/namespaces/inkscape"
   xml:space="preserve"
   width="640"
   height="808"
   version="1.1"
   style="clip-rule:evenodd;fill-rule:evenodd;image-rendering:optimizeQuality;shape-rendering:geometricPrecision;text-rendering:geometricPrecision"
   viewBox="0 0 16933.333 21378.334"
   id="svg70"
   sodipodi:docname="youLogo.svg"
   inkscape:version="0.92.4 (f8dce91, 2019-08-02)"><metadata
   id="metadata74"><rdf:RDF><cc:Work
       rdf:about=""><dc:format>image/svg+xml</dc:format><dc:type
         rdf:resource="http://purl.org/dc/dcmitype/StillImage" /><dc:title></dc:title></cc:Work></rdf:RDF></metadata><sodipodi:namedview
   pagecolor="#ffffff"
   bordercolor="#666666"
   borderopacity="1"
   objecttolerance="10"
   gridtolerance="10"
   guidetolerance="10"
   inkscape:pageopacity="0"
   inkscape:pageshadow="2"
   inkscape:window-width="1366"
   inkscape:window-height="680"
   id="namedview72"
   showgrid="false"
   units="px"
   inkscape:zoom="0.44453563"
   inkscape:cx="335.73906"
   inkscape:cy="247.69179"
   inkscape:window-x="0"
   inkscape:window-y="27"
   inkscape:window-maximized="1"
   inkscape:current-layer="svg70" />
 <defs
   id="defs64">
  <style
   type="text/css"
   id="style62">
   <![CDATA[
    .fil0 {fill:#FEFEFE}
   ]]>
  </style>
 </defs>
 <g
   id="Camada_x0020_1"
   transform="translate(-4463.9279,-4869.557)">
  <metadata
   id="CorelCorpID_0Corel-Layer" />
  <path
   class="fil0"
   d="m 12959.86,7469.72 c 4681.92,0 8477.36,3795.44 8477.36,8477.36 0,4681.91 -3795.44,8477.35 -8477.36,8477.35 -4681.91,0 -8477.35,-3795.44 -8477.35,-8477.35 0,-4681.92 3795.44,-8477.36 8477.35,-8477.36 z m -834.2,10284.62 v -4042.73 c 419.72,281.06 2605.28,1809.05 2798.82,2073.22 -284.99,150.79 -428.3,240.77 -696.69,443.57 z M 6320.72,12778.7 v 5701.27 c 0,1148.95 1350.07,1762.21 2073.19,1762.21 h 9433.03 c 942.84,0 1762.21,-786.55 1762.21,-1554.9 v -5804.94 c 0,-1000.02 -876.17,-1762.21 -1865.87,-1762.21 H 8497.57 c -897.91,0 -2176.85,783.81 -2176.85,1658.57 z"
   id="path67"
   inkscape:connector-curvature="0"
   style="fill:#fefefe" />
 </g>
</svg>