<?xml version="1.0" encoding="UTF-8" standalone="no"?>
<!-- Creator: CorelDRAW 2018 (64 Bit Versão de avaliação) -->

<svg
   xmlns:dc="http://purl.org/dc/elements/1.1/"
   xmlns:cc="http://creativecommons.org/ns#"
   xmlns:rdf="http://www.w3.org/1999/02/22-rdf-syntax-ns#"
   xmlns:svg="http://www.w3.org/2000/svg"
   xmlns="http://www.w3.org/2000/svg"
   xmlns:sodipodi="http://sodipodi.sourceforge.net/DTD/sodipodi-0.dtd"
   xmlns:inkscape="http://www.inkscape.org/namespaces/inkscape"
   xml:space="preserve"
   width="640"
   height="808"
   version="1.1"
   style="clip-rule:evenodd;fill-rule:evenodd;image-rendering:optimizeQuality;shape-rendering:geometricPrecision;text-rendering:geometricPrecision"
   viewBox="0 0 16933.333 21378.334"
   id="svg174"
   sodipodi:docname="instagram_1.svg"
   inkscape:version="0.92.4 (f8dce91, 2019-08-02)"><metadata
   id="metadata178"><rdf:RDF><cc:Work
       rdf:about=""><dc:format>image/svg+xml</dc:format><dc:type
         rdf:resource="http://purl.org/dc/dcmitype/StillImage" /><dc:title /></cc:Work></rdf:RDF></metadata><sodipodi:namedview
   pagecolor="#ffffff"
   bordercolor="#666666"
   borderopacity="1"
   objecttolerance="10"
   gridtolerance="10"
   guidetolerance="10"
   inkscape:pageopacity="0"
   inkscape:pageshadow="2"
   inkscape:window-width="1366"
   inkscape:window-height="680"
   id="namedview176"
   showgrid="false"
   units="px"
   inkscape:zoom="0.43669093"
   inkscape:cx="313.34886"
   inkscape:cy="388.34003"
   inkscape:window-x="0"
   inkscape:window-y="27"
   inkscape:window-maximized="1"
   inkscape:current-layer="svg174" />
 <defs
   id="defs168">
  <style
   type="text/css"
   id="style166">
   <![CDATA[
    .fil0 {fill:#FEFEFE}
   ]]>
  </style>
 </defs>
 
<path
   style="fill:#ffffff;stroke-width:26.49172401"
   d="M 7920.4822,18926.143 C 7212.0564,18855.665 6763.3214,18778.581 6261.7627,18641.207 3262.9142,17819.843 928.37971,15408.891 227.81625,12409.75 64.256761,11709.544 14.033684,11244.724 14.934358,10439.492 15.755797,9705.5232 46.890212,9375.0381 175.02554,8740.1157 839.99536,5445.1516 3476.1632,2817.2635 6798.3112,2137.6311 c 617.3315,-126.2912 962.5271,-158.0184 1719.2552,-158.0184 751.6913,0 1093.2551,31.0396 1712.9196,155.6614 953.288,191.7176 1996.695,607.5366 2820.465,1124.0132 1859.149,1165.6234 3206.314,3018.5424 3731.762,5132.744 181.987,732.2487 186.921,787.3469 186.921,2087.1297 0,1122.26 -2.832,1190.978 -61.037,1481 -187.447,934.012 -415.515,1596.886 -823.469,2393.401 -387.17,755.936 -920.354,1482.713 -1542.949,2103.18 -1335.999,1331.434 -3063.304,2177.727 -4940.3321,2420.516 -310.1125,40.112 -1439.4858,72.948 -1681.3647,48.885 z M 3575.9133,16123.789 c 477.5144,-124.564 1135.6861,-297.406 1462.6034,-384.095 326.9174,-86.689 619.4888,-158.97 650.1589,-160.624 30.6699,-1.653 169.2102,50.8 307.8667,116.566 525.6513,249.317 1092.3815,422.503 1685.1059,514.947 405.8578,63.299 1269.3277,62.709 1680.3728,-1.148 1371.955,-213.139 2546.194,-841.506 3488.68,-1866.886 787.699,-856.98 1303.255,-1947.458 1464.112,-3096.819 52.871,-377.781 54.06,-1289.1288 2.156,-1652.9 -184.887,-1295.7394 -778.911,-2454.3054 -1729.586,-3373.3295 -323.825,-313.0426 -552.926,-495.831 -910.197,-726.2003 -721.683,-465.3433 -1598.844,-779.6079 -2468.9574,-884.5667 -321.0681,-38.7292 -1132.9329,-32.5809 -1460.2374,11.0583 C 6459.2227,4791.6227 5325.4655,5354.3777 4390.1441,6286.5025 3354.822,7318.2867 2783.9285,8566.7083 2676.5006,10033.872 c -74.4159,1016.325 135.9425,2055.872 608.2484,3005.832 l 148.8438,299.373 -85.4787,322.118 c -47.0145,177.164 -151.5327,560.135 -232.2644,851.046 -240.8218,867.791 -489.5201,1789.734 -489.5201,1814.687 0,41.391 67.667,26.915 949.5837,-203.139 z M 8039.8986,15116.448 C 7199.6314,14988.783 6696.142,14826.523 6130.172,14500.999 l -233.7648,-134.453 -367.8921,95.506 c -202.3405,52.528 -606.2515,159.171 -897.5793,236.984 -291.3277,77.813 -531.3571,139.023 -533.3982,136.02 -2.0401,-3.002 84.0686,-320.832 191.355,-706.289 107.2854,-385.456 214.8508,-779.382 239.0336,-875.388 l 43.9684,-174.559 -133.8533,-222.138 c -314.9729,-522.714 -483.9966,-958.048 -622.8357,-1604.16 -54.1698,-252.088 -60.9118,-354.135 -59.8367,-905.593 1.0532,-540.3483 8.9707,-657.7464 60.6391,-899.1787 143.1067,-668.7105 430.2771,-1338.0348 794.2706,-1851.2496 238.2011,-335.8542 799.2364,-895.1828 1134.1605,-1130.711 584.8359,-411.2728 1240.1851,-684.0743 1963.2765,-817.2498 310.289,-57.1477 986.9917,-75.5445 1344.9391,-36.5632 1638.5063,178.4364 3064.5623,1191.5452 3778.6743,2684.4739 327.098,683.8293 462.917,1289.3176 462.917,2063.7024 0,777.636 -142.764,1400.411 -478.939,2089.267 -703.748,1442.049 -2059.047,2420.833 -3660.2503,2643.4 -264.2935,36.737 -935.3072,50.954 -1115.1581,23.628 z m 2329.7894,-2020.054 c 422.175,-68.275 908.631,-433.507 1001.52,-751.942 43.698,-149.802 91.576,-414.906 91.823,-508.437 0.08,-31.917 -26.715,-88.413 -59.555,-125.549 -58.708,-66.388 -956.906,-519.495 -1238.531,-624.792 -167.1669,-62.502 -260.0044,-41.24 -336.8917,77.157 -87.2229,134.312 -469.5848,588.316 -516.5944,613.389 -77.7367,41.461 -127.3701,30.474 -380.1323,-84.148 -459.5832,-208.412 -820.4413,-454.319 -1150.8931,-784.277 -324.1101,-323.625 -695.653,-846.023 -695.8024,-978.3136 -0.05,-36.2757 69.9076,-141.9591 175.0396,-264.4639 186.6781,-217.526 302.56,-414.7382 302.56,-514.9041 0,-57.4202 -414.6778,-1092.1144 -514.4761,-1283.7063 -75.4901,-144.9259 -181.1647,-190.4423 -440.8596,-189.8874 -277.628,0.5924 -390.494,46.6285 -560.3772,228.5634 -559.3063,598.9833 -619.7447,1354.573 -174.9403,2187.0569 222.9738,417.31 693.7773,1047.623 1105.0721,1479.475 588.2711,617.671 1188.4396,1009.17 1965.5112,1282.134 731.9726,257.12 1027.4567,307.345 1427.5272,242.645 z"
   id="path299"
   inkscape:connector-curvature="0" /></svg>